<?xml version="1.0" encoding="utf-8"?>
<!-- Generator: Adobe Illustrator 21.1.0, SVG Export Plug-In . SVG Version: 6.00 Build 0)  -->
<svg version="1.1" id="Layer_1" xmlns="http://www.w3.org/2000/svg" xmlns:xlink="http://www.w3.org/1999/xlink" x="0px" y="0px"
	 viewBox="0 0 141.7 85" style="enable-background:new 0 0 141.7 85;" xml:space="preserve">
<style type="text/css">
	.st0{fill:#EAEAE9;}
	.st1{fill:#D1D1D1;}
	.st2{fill:#B4B4B5;}
	.st3{fill:#99999A;}
	.st4{fill:#8C8B8B;}
	.st5{fill:#666667;}
	.st6{fill:#575757;}
	.st7{fill:#49494A;}
	.st8{fill:#3A3A3A;}
	.st9{font-family:'HelveticaNeue-Thin';}
	.st10{font-size:6.5141px;}
</style>
<g>
	<path class="st0" d="M51.6,57.3C51.6,57.3,51.6,57.3,51.6,57.3c-0.1,0-0.2-0.1-0.2-0.2l0.8-27.5c0-0.1,0.1-0.2,0.2-0.2
		c0.1,0,0.2,0.1,0.2,0.2l-0.8,27.5C51.8,57.2,51.7,57.3,51.6,57.3z"/>
	<path class="st0" d="M21.3,39.2c-0.1,0-0.2-0.1-0.2-0.1c0-0.1,0-0.2,0.1-0.3l29-11.2c0.1,0,0.2,0,0.3,0.1c0,0.1,0,0.2-0.1,0.3
		L21.3,39.2C21.4,39.2,21.4,39.2,21.3,39.2z"/>
	<path class="st0" d="M49.5,58.8C49.4,58.8,49.4,58.8,49.5,58.8L21,45.8c-0.1-0.1-0.2-0.2-0.1-0.3c0.1-0.1,0.2-0.2,0.3-0.1l28.4,13
		c0.1,0.1,0.2,0.2,0.1,0.3C49.6,58.8,49.6,58.8,49.5,58.8z"/>
	<path class="st1" d="M53.4,55.4c-0.1,0-0.2-0.1-0.2-0.2l-6.8-29.6c0-0.1,0-0.2,0.2-0.3c0.1,0,0.2,0,0.3,0.2l6.8,29.6
		C53.7,55.3,53.6,55.4,53.4,55.4C53.5,55.4,53.5,55.4,53.4,55.4z"/>
	<path class="st1" d="M20.9,43.3c-0.1,0-0.1,0-0.2-0.1c-0.1-0.1,0-0.2,0.1-0.3L46.5,26c0.1-0.1,0.2,0,0.3,0.1c0.1,0.1,0,0.2-0.1,0.3
		L21,43.2C21,43.3,21,43.3,20.9,43.3z"/>
	<path class="st2" d="M52.6,56.1C52.6,56.1,52.6,56.1,52.6,56.1L21.4,48c-0.1,0-0.2-0.1-0.2-0.3c0-0.1,0.1-0.2,0.3-0.2l31.2,8.1
		c0.1,0,0.2,0.1,0.2,0.3C52.8,56,52.7,56.1,52.6,56.1z"/>
	<path class="st2" d="M55,53.5c-0.1,0-0.2,0-0.2-0.1l-14.3-29c-0.1-0.1,0-0.2,0.1-0.3c0.1-0.1,0.2,0,0.3,0.1l14.3,29
		C55.2,53.3,55.2,53.5,55,53.5C55,53.5,55,53.5,55,53.5z"/>
	<path class="st2" d="M21.5,47.9c-0.1,0-0.1,0-0.1-0.1c-0.1-0.1-0.1-0.2,0-0.3l19.9-21.3c0.1-0.1,0.2-0.1,0.3,0
		c0.1,0.1,0.1,0.2,0,0.3L21.7,47.8C21.7,47.8,21.6,47.9,21.5,47.9z"/>
	<path class="st1" d="M54.9,53.6C54.9,53.6,54.9,53.6,54.9,53.6l-32.7-3.7c-0.1,0-0.2-0.1-0.2-0.2c0-0.1,0.1-0.2,0.2-0.2l32.7,3.7
		c0.1,0,0.2,0.1,0.2,0.2C55.1,53.5,55,53.6,54.9,53.6z"/>
	<path class="st3" d="M56.1,51.5c-0.1,0-0.1,0-0.2-0.1L35.1,24.9c-0.1-0.1-0.1-0.2,0-0.3c0.1-0.1,0.2-0.1,0.3,0l20.9,26.5
		c0.1,0.1,0.1,0.2,0,0.3C56.2,51.5,56.2,51.5,56.1,51.5z"/>
	<path class="st3" d="M23.5,52.6c0,0-0.1,0-0.1,0c-0.1-0.1-0.1-0.2-0.1-0.3l13.5-25.2C36.9,27,37,27,37.1,27
		c0.1,0.1,0.1,0.2,0.1,0.3L23.7,52.5C23.7,52.6,23.6,52.6,23.5,52.6z"/>
	<path class="st3" d="M23.9,52.1c-0.1,0-0.2-0.1-0.2-0.2c0-0.1,0.1-0.2,0.2-0.2l32.7-1.8c0.1,0,0.2,0.1,0.2,0.2
		c0,0.1-0.1,0.2-0.2,0.2L23.9,52.1C23.9,52.1,23.9,52.1,23.9,52.1z"/>
	<path class="st4" d="M57,49.4c-0.1,0-0.1,0-0.1-0.1L30.7,26.6c-0.1-0.1-0.1-0.2,0-0.3c0.1-0.1,0.2-0.1,0.3,0l26.2,22.8
		c0.1,0.1,0.1,0.2,0,0.3C57.1,49.4,57.1,49.4,57,49.4z"/>
	<path class="st4" d="M27.1,56.9C27.1,56.9,27.1,56.9,27.1,56.9c-0.2,0-0.2-0.1-0.2-0.3l6.3-28c0-0.1,0.1-0.2,0.3-0.2
		c0.1,0,0.2,0.1,0.2,0.3l-6.3,28C27.3,56.9,27.2,56.9,27.1,56.9z"/>
	<path class="st4" d="M27.9,53.9c-0.1,0-0.2-0.1-0.2-0.2c0-0.1,0-0.2,0.2-0.3l29.8-7c0.1,0,0.2,0,0.3,0.2c0,0.1,0,0.2-0.2,0.3
		L27.9,53.9C28,53.9,27.9,53.9,27.9,53.9z"/>
	<path class="st5" d="M57,46.9c0,0-0.1,0-0.1,0l-29.6-18c-0.1-0.1-0.1-0.2-0.1-0.3c0.1-0.1,0.2-0.1,0.3-0.1l29.6,18
		c0.1,0.1,0.1,0.2,0.1,0.3C57.2,46.9,57.1,46.9,57,46.9z"/>
	<path class="st5" d="M31.9,60.1c-0.1,0-0.2-0.1-0.2-0.2l-1.4-29.2c0-0.1,0.1-0.2,0.2-0.2c0.1,0,0.2,0.1,0.2,0.2l1.4,29.2
		C32.2,60,32.1,60.1,31.9,60.1C31.9,60.1,31.9,60.1,31.9,60.1z"/>
	<path class="st5" d="M31.8,54.9c-0.1,0-0.2,0-0.2-0.1c0-0.1,0-0.2,0.1-0.3l26.3-12c0.1-0.1,0.2,0,0.3,0.1c0,0.1,0,0.2-0.1,0.3
		L31.8,54.9C31.9,54.9,31.8,54.9,31.8,54.9z"/>
	<path class="st6" d="M55.5,43.9C55.4,43.9,55.4,43.9,55.5,43.9L24.8,31.6c-0.1,0-0.2-0.2-0.1-0.3c0-0.1,0.2-0.2,0.3-0.1l30.6,12.4
		c0.1,0,0.2,0.2,0.1,0.3C55.6,43.9,55.6,43.9,55.5,43.9z"/>
	<path class="st6" d="M37.3,61.6c-0.1,0-0.2-0.1-0.2-0.2L28.4,33c0-0.1,0-0.2,0.1-0.3c0.1,0,0.2,0,0.3,0.1l8.7,28.4
		C37.5,61.4,37.4,61.5,37.3,61.6C37.3,61.5,37.3,61.6,37.3,61.6z"/>
	<path class="st6" d="M35.4,55.2c-0.1,0-0.1,0-0.2-0.1c-0.1-0.1-0.1-0.2,0-0.3L57.4,38c0.1-0.1,0.2-0.1,0.3,0c0.1,0.1,0.1,0.2,0,0.3
		L35.5,55.2C35.5,55.2,35.5,55.2,35.4,55.2z"/>
	<path class="st7" d="M53.4,41.4C53.4,41.4,53.4,41.4,53.4,41.4l-30.4-7c-0.1,0-0.2-0.1-0.2-0.3c0-0.1,0.1-0.2,0.3-0.2l30.4,7
		c0.1,0,0.2,0.1,0.2,0.3C53.6,41.4,53.5,41.4,53.4,41.4z"/>
	<path class="st7" d="M42.3,61.5c-0.1,0-0.1,0-0.2-0.1L27.2,35.4c-0.1-0.1,0-0.2,0.1-0.3c0.1-0.1,0.2,0,0.3,0.1l14.9,25.9
		c0.1,0.1,0,0.2-0.1,0.3C42.4,61.5,42.3,61.5,42.3,61.5z"/>
	<path class="st7" d="M38.6,55c0,0-0.1,0-0.1,0c-0.1-0.1-0.1-0.2,0-0.3l17-21.1c0.1-0.1,0.2-0.1,0.3,0c0.1,0.1,0.1,0.2,0,0.3
		l-17,21.1C38.8,54.9,38.7,55,38.6,55z"/>
	<path class="st8" d="M51,39.5C51,39.5,51,39.5,51,39.5l-29.3-1.9c-0.1,0-0.2-0.1-0.2-0.2c0-0.1,0.1-0.2,0.2-0.2L51,39
		c0.1,0,0.2,0.1,0.2,0.2C51.2,39.4,51.1,39.5,51,39.5z"/>
	<path class="st8" d="M46.6,60.3c-0.1,0-0.1,0-0.2-0.1L26.8,37.9c-0.1-0.1-0.1-0.2,0-0.3c0.1-0.1,0.2-0.1,0.3,0l19.7,22.3
		c0.1,0.1,0.1,0.2,0,0.3C46.7,60.2,46.7,60.3,46.6,60.3z"/>
	<path class="st8" d="M41.4,54.2C41.3,54.2,41.3,54.2,41.4,54.2c-0.2-0.1-0.2-0.2-0.2-0.3l10.9-24.7c0-0.1,0.2-0.2,0.3-0.1
		c0.1,0,0.2,0.2,0.1,0.3L41.6,54.1C41.5,54.2,41.4,54.2,41.4,54.2z"/>
</g>
<g>
	<g>
		<g>
			<path class="st5" d="M65,30.5v18.6c0,0.2-0.2,0.4-0.4,0.4l0,0c-0.2,0-0.4-0.2-0.4-0.4V30.5c0-0.2,0.2-0.4,0.4-0.4l0,0
				C64.8,30.1,65,30.2,65,30.5z M65.9,39.6L65.9,39.6c0-0.1,0-0.2,0.1-0.3L76,30c0.2-0.2,0.4-0.1,0.6,0v0c0.2,0.2,0.1,0.4,0,0.6
				l-10,9.3C66.3,40.2,65.9,40,65.9,39.6z M68.1,40.2l8.5,8.7c0.2,0.2,0.2,0.4,0,0.6l0,0c-0.2,0.1-0.4,0.1-0.6,0l-8.5-8.7
				c-0.2-0.2-0.2-0.4,0-0.6l0,0C67.7,40,67.9,40,68.1,40.2z"/>
		</g>
		<path class="st5" d="M80.6,30.1L80.6,30.1c0.4,0,0.7,0.3,0.7,0.7v0c0,0.4-0.3,0.7-0.7,0.7l0,0c-0.4,0-0.7-0.3-0.7-0.7v0
			C79.9,30.4,80.2,30.1,80.6,30.1z M81,35v14c0,0.2-0.2,0.4-0.4,0.4l0,0c-0.2,0-0.4-0.2-0.4-0.4V35c0-0.2,0.2-0.4,0.4-0.4l0,0
			C80.8,34.6,81,34.8,81,35z"/>
		<g>
			<path class="st5" d="M85.6,35v14c0,0.2-0.2,0.4-0.4,0.4h0c-0.2,0-0.4-0.2-0.4-0.4V35c0-0.2,0.2-0.4,0.4-0.4h0
				C85.4,34.6,85.6,34.8,85.6,35z M86.5,35.6L86.5,35.6c0-0.2,0.1-0.3,0.2-0.4c1.1-0.6,2.4-0.9,3.6-0.9c2.5,0,4.8,1.2,5.7,3.7
				c0.2,0.4,0.3,0.9,0.3,1.9v9.1c0,0.2-0.2,0.4-0.4,0.4h0c-0.2,0-0.4-0.2-0.4-0.4V40c0-3.2-2.7-4.8-5.2-4.8c-1.1,0-2.3,0.3-3.3,0.8
				C86.8,36.1,86.5,35.9,86.5,35.6z"/>
		</g>
		<g>
			<path class="st5" d="M100.4,30.1L100.4,30.1c0.4,0,0.7,0.3,0.7,0.7v0c0,0.4-0.3,0.7-0.7,0.7h0c-0.4,0-0.7-0.3-0.7-0.7v0
				C99.7,30.4,100,30.1,100.4,30.1z M100.8,35v14c0,0.2-0.2,0.4-0.4,0.4l0,0c-0.2,0-0.4-0.2-0.4-0.4V35c0-0.2,0.2-0.4,0.4-0.4l0,0
				C100.6,34.6,100.8,34.8,100.8,35z"/>
		</g>
		<g>
			<path class="st5" d="M105.1,48.7c0.1-0.2,0.3-0.3,0.5-0.2c0.7,0.2,1.7,0.4,2.4,0.4c3.3,0,5.4-1.5,5.4-3.5c0-1.4-1.5-2.4-4.3-2.9
				c-3.2-0.5-5-1.9-5-3.7c0-2.4,2.4-4.3,6.2-4.3c0.7,0,1.8,0.2,2.6,0.4c0.2,0.1,0.4,0.3,0.3,0.6l0,0c-0.1,0.2-0.3,0.3-0.5,0.2
				c-0.7-0.2-1.7-0.4-2.4-0.4c-3.3,0-5.4,1.5-5.4,3.5c0,1.4,1.5,2.4,4.3,2.9c3.2,0.5,5,1.9,5,3.7c0,2.4-2.4,4.3-6.2,4.3
				c-0.7,0-1.8-0.2-2.6-0.4C105.2,49.2,105,48.9,105.1,48.7L105.1,48.7z"/>
		</g>
		<g>
			<path class="st5" d="M118,30.1L118,30.1c0.4,0,0.7,0.3,0.7,0.7v0c0,0.4-0.3,0.7-0.7,0.7l0,0c-0.4,0-0.7-0.3-0.7-0.7v0
				C117.3,30.4,117.6,30.1,118,30.1z M118.4,35v14c0,0.2-0.2,0.4-0.4,0.4h0c-0.2,0-0.4-0.2-0.4-0.4V35c0-0.2,0.2-0.4,0.4-0.4h0
				C118.2,34.6,118.4,34.8,118.4,35z"/>
		</g>
	</g>
	<text transform="matrix(1 0 0 1 63.9181 57.6315)" class="st5 st9 st10">Centrum fyzioterapie</text>
</g>
</svg>
