<?xml version="1.0" encoding="utf-8"?>
<svg version="1.1" id="Layer_1" xmlns="http://www.w3.org/2000/svg" xmlns:xlink="http://www.w3.org/1999/xlink"
	 width="170px" height="65px" viewBox="19 23 104.615 40" preserveAspectRatio="xMidYMid meet">
<style type="text/css">
	.st0{fill:#EAEAE9;}
	.st1{fill:#D1D1D1;}
	.st2{fill:#B4B4B5;}
	.st3{fill:#99999A;}
	.st4{fill:#8C8B8B;}
	.st5{fill:#666667;}
	.st6{fill:#575757;}
	.st7{fill:#49494A;}
	.st8{fill:#3A3A3A;}
</style>
<g>
	<path class="st0" d="M51.6,57.3C51.6,57.3,51.6,57.3,51.6,57.3c-0.1,0-0.2-0.1-0.2-0.2l0.8-27.5c0-0.1,0.1-0.2,0.2-0.2
		c0.1,0,0.2,0.1,0.2,0.2l-0.8,27.5C51.8,57.2,51.7,57.3,51.6,57.3z"/>
	<path class="st0" d="M21.3,39.2c-0.1,0-0.2-0.1-0.2-0.1c0-0.1,0-0.2,0.1-0.3l29-11.2c0.1,0,0.2,0,0.3,0.1c0,0.1,0,0.2-0.1,0.3
		L21.3,39.2C21.4,39.2,21.4,39.2,21.3,39.2z"/>
	<path class="st0" d="M49.5,58.8C49.4,58.8,49.4,58.8,49.5,58.8L21,45.8c-0.1-0.1-0.2-0.2-0.1-0.3c0.1-0.1,0.2-0.2,0.3-0.1l28.4,13
		c0.1,0.1,0.2,0.2,0.1,0.3C49.6,58.8,49.6,58.8,49.5,58.8z"/>
	<path class="st1" d="M53.4,55.4c-0.1,0-0.2-0.1-0.2-0.2l-6.8-29.6c0-0.1,0-0.2,0.2-0.3c0.1,0,0.2,0,0.3,0.2l6.8,29.6
		C53.7,55.3,53.6,55.4,53.4,55.4C53.5,55.4,53.5,55.4,53.4,55.4z"/>
	<path class="st1" d="M20.9,43.3c-0.1,0-0.1,0-0.2-0.1c-0.1-0.1,0-0.2,0.1-0.3L46.5,26c0.1-0.1,0.2,0,0.3,0.1c0.1,0.1,0,0.2-0.1,0.3
		L21,43.2C21,43.3,21,43.3,20.9,43.3z"/>
	<path class="st2" d="M52.6,56.1C52.6,56.1,52.6,56.1,52.6,56.1L21.4,48c-0.1,0-0.2-0.1-0.2-0.3c0-0.1,0.1-0.2,0.3-0.2l31.2,8.1
		c0.1,0,0.2,0.1,0.2,0.3C52.8,56,52.7,56.1,52.6,56.1z"/>
	<path class="st2" d="M55,53.5c-0.1,0-0.2,0-0.2-0.1l-14.3-29c-0.1-0.1,0-0.2,0.1-0.3c0.1-0.1,0.2,0,0.3,0.1l14.3,29
		C55.2,53.3,55.2,53.5,55,53.5C55,53.5,55,53.5,55,53.5z"/>
	<path class="st2" d="M21.5,47.9c-0.1,0-0.1,0-0.1-0.1c-0.1-0.1-0.1-0.2,0-0.3l19.9-21.3c0.1-0.1,0.2-0.1,0.3,0
		c0.1,0.1,0.1,0.2,0,0.3L21.7,47.8C21.7,47.8,21.6,47.9,21.5,47.9z"/>
	<path class="st1" d="M54.9,53.6C54.9,53.6,54.9,53.6,54.9,53.6l-32.7-3.7c-0.1,0-0.2-0.1-0.2-0.2c0-0.1,0.1-0.2,0.2-0.2l32.7,3.7
		c0.1,0,0.2,0.1,0.2,0.2C55.1,53.5,55,53.6,54.9,53.6z"/>
	<path class="st3" d="M56.1,51.5c-0.1,0-0.1,0-0.2-0.1L35.1,24.9c-0.1-0.1-0.1-0.2,0-0.3c0.1-0.1,0.2-0.1,0.3,0l20.9,26.5
		c0.1,0.1,0.1,0.2,0,0.3C56.2,51.5,56.2,51.5,56.1,51.5z"/>
	<path class="st3" d="M23.5,52.6c0,0-0.1,0-0.1,0c-0.1-0.1-0.1-0.2-0.1-0.3l13.5-25.2C36.9,27,37,27,37.1,27
		c0.1,0.1,0.1,0.2,0.1,0.3L23.7,52.5C23.7,52.6,23.6,52.6,23.5,52.6z"/>
	<path class="st3" d="M23.9,52.1c-0.1,0-0.2-0.1-0.2-0.2c0-0.1,0.1-0.2,0.2-0.2l32.7-1.8c0.1,0,0.2,0.1,0.2,0.2
		c0,0.1-0.1,0.2-0.2,0.2L23.9,52.1C23.9,52.1,23.9,52.1,23.9,52.1z"/>
	<path class="st4" d="M57,49.4c-0.1,0-0.1,0-0.1-0.1L30.7,26.6c-0.1-0.1-0.1-0.2,0-0.3c0.1-0.1,0.2-0.1,0.3,0l26.2,22.8
		c0.1,0.1,0.1,0.2,0,0.3C57.1,49.4,57.1,49.4,57,49.4z"/>
	<path class="st4" d="M27.1,56.9C27.1,56.9,27.1,56.9,27.1,56.9c-0.2,0-0.2-0.1-0.2-0.3l6.3-28c0-0.1,0.1-0.2,0.3-0.2
		c0.1,0,0.2,0.1,0.2,0.3l-6.3,28C27.3,56.9,27.2,56.9,27.1,56.9z"/>
	<path class="st4" d="M27.9,53.9c-0.1,0-0.2-0.1-0.2-0.2c0-0.1,0-0.2,0.2-0.3l29.8-7c0.1,0,0.2,0,0.3,0.2c0,0.1,0,0.2-0.2,0.3
		L27.9,53.9C28,53.9,27.9,53.9,27.9,53.9z"/>
	<path class="st5" d="M57,46.9c0,0-0.1,0-0.1,0l-29.6-18c-0.1-0.1-0.1-0.2-0.1-0.3c0.1-0.1,0.2-0.1,0.3-0.1l29.6,18
		c0.1,0.1,0.1,0.2,0.1,0.3C57.2,46.9,57.1,46.9,57,46.9z"/>
	<path class="st5" d="M31.9,60.1c-0.1,0-0.2-0.1-0.2-0.2l-1.4-29.2c0-0.1,0.1-0.2,0.2-0.2c0.1,0,0.2,0.1,0.2,0.2l1.4,29.2
		C32.2,60,32.1,60.1,31.9,60.1C31.9,60.1,31.9,60.1,31.9,60.1z"/>
	<path class="st5" d="M31.8,54.9c-0.1,0-0.2,0-0.2-0.1c0-0.1,0-0.2,0.1-0.3l26.3-12c0.1-0.1,0.2,0,0.3,0.1c0,0.1,0,0.2-0.1,0.3
		L31.8,54.9C31.9,54.9,31.8,54.9,31.8,54.9z"/>
	<path class="st6" d="M55.5,43.9C55.4,43.9,55.4,43.9,55.5,43.9L24.8,31.6c-0.1,0-0.2-0.2-0.1-0.3c0-0.1,0.2-0.2,0.3-0.1l30.6,12.4
		c0.1,0,0.2,0.2,0.1,0.3C55.6,43.9,55.6,43.9,55.5,43.9z"/>
	<path class="st6" d="M37.3,61.6c-0.1,0-0.2-0.1-0.2-0.2L28.4,33c0-0.1,0-0.2,0.1-0.3c0.1,0,0.2,0,0.3,0.1l8.7,28.4
		C37.5,61.4,37.4,61.5,37.3,61.6C37.3,61.5,37.3,61.6,37.3,61.6z"/>
	<path class="st6" d="M35.4,55.2c-0.1,0-0.1,0-0.2-0.1c-0.1-0.1-0.1-0.2,0-0.3L57.4,38c0.1-0.1,0.2-0.1,0.3,0c0.1,0.1,0.1,0.2,0,0.3
		L35.5,55.2C35.5,55.2,35.5,55.2,35.4,55.2z"/>
	<path class="st7" d="M53.4,41.4C53.4,41.4,53.4,41.4,53.4,41.4l-30.4-7c-0.1,0-0.2-0.1-0.2-0.3c0-0.1,0.1-0.2,0.3-0.2l30.4,7
		c0.1,0,0.2,0.1,0.2,0.3C53.6,41.4,53.5,41.4,53.4,41.4z"/>
	<path class="st7" d="M42.3,61.5c-0.1,0-0.1,0-0.2-0.1L27.2,35.4c-0.1-0.1,0-0.2,0.1-0.3c0.1-0.1,0.2,0,0.3,0.1l14.9,25.9
		c0.1,0.1,0,0.2-0.1,0.3C42.4,61.5,42.3,61.5,42.3,61.5z"/>
	<path class="st7" d="M38.6,55c0,0-0.1,0-0.1,0c-0.1-0.1-0.1-0.2,0-0.3l17-21.1c0.1-0.1,0.2-0.1,0.3,0c0.1,0.1,0.1,0.2,0,0.3
		l-17,21.1C38.8,54.9,38.7,55,38.6,55z"/>
	<path class="st8" d="M51,39.5C51,39.5,51,39.5,51,39.5l-29.3-1.9c-0.1,0-0.2-0.1-0.2-0.2c0-0.1,0.1-0.2,0.2-0.2L51,39
		c0.1,0,0.2,0.1,0.2,0.2C51.2,39.4,51.1,39.5,51,39.5z"/>
	<path class="st8" d="M46.6,60.3c-0.1,0-0.1,0-0.2-0.1L26.8,37.9c-0.1-0.1-0.1-0.2,0-0.3c0.1-0.1,0.2-0.1,0.3,0l19.7,22.3
		c0.1,0.1,0.1,0.2,0,0.3C46.7,60.2,46.7,60.3,46.6,60.3z"/>
	<path class="st8" d="M41.4,54.2C41.3,54.2,41.3,54.2,41.4,54.2c-0.2-0.1-0.2-0.2-0.2-0.3l10.9-24.7c0-0.1,0.2-0.2,0.3-0.1
		c0.1,0,0.2,0.2,0.1,0.3L41.6,54.1C41.5,54.2,41.4,54.2,41.4,54.2z"/>
</g>
<g>
	<g>
		<g>
			<path class="st5" d="M65,30.5v18.6c0,0.2-0.2,0.4-0.4,0.4l0,0c-0.2,0-0.4-0.2-0.4-0.4V30.5c0-0.2,0.2-0.4,0.4-0.4l0,0
				C64.8,30.1,65,30.2,65,30.5z M65.9,39.6L65.9,39.6c0-0.1,0-0.2,0.1-0.3L76,30c0.2-0.2,0.4-0.1,0.6,0v0c0.2,0.2,0.1,0.4,0,0.6
				l-10,9.3C66.3,40.2,65.9,40,65.9,39.6z M68.1,40.2l8.5,8.7c0.2,0.2,0.2,0.4,0,0.6l0,0c-0.2,0.1-0.4,0.1-0.6,0l-8.5-8.7
				c-0.2-0.2-0.2-0.4,0-0.6l0,0C67.7,40,67.9,40,68.1,40.2z"/>
		</g>
		<path class="st5" d="M80.6,30.1L80.6,30.1c0.4,0,0.7,0.3,0.7,0.7v0c0,0.4-0.3,0.7-0.7,0.7l0,0c-0.4,0-0.7-0.3-0.7-0.7v0
			C79.9,30.4,80.2,30.1,80.6,30.1z M81,35v14c0,0.2-0.2,0.4-0.4,0.4l0,0c-0.2,0-0.4-0.2-0.4-0.4V35c0-0.2,0.2-0.4,0.4-0.4l0,0
			C80.8,34.6,81,34.8,81,35z"/>
		<g>
			<path class="st5" d="M85.6,35v14c0,0.2-0.2,0.4-0.4,0.4h0c-0.2,0-0.4-0.2-0.4-0.4V35c0-0.2,0.2-0.4,0.4-0.4h0
				C85.4,34.6,85.6,34.8,85.6,35z M86.5,35.6L86.5,35.6c0-0.2,0.1-0.3,0.2-0.4c1.1-0.6,2.4-0.9,3.6-0.9c2.5,0,4.8,1.2,5.7,3.7
				c0.2,0.4,0.3,0.9,0.3,1.9v9.1c0,0.2-0.2,0.4-0.4,0.4h0c-0.2,0-0.4-0.2-0.4-0.4V40c0-3.2-2.7-4.8-5.2-4.8c-1.1,0-2.3,0.3-3.3,0.8
				C86.8,36.1,86.5,35.9,86.5,35.6z"/>
		</g>
		<g>
			<path class="st5" d="M100.4,30.1L100.4,30.1c0.4,0,0.7,0.3,0.7,0.7v0c0,0.4-0.3,0.7-0.7,0.7h0c-0.4,0-0.7-0.3-0.7-0.7v0
				C99.7,30.4,100,30.1,100.4,30.1z M100.8,35v14c0,0.2-0.2,0.4-0.4,0.4l0,0c-0.2,0-0.4-0.2-0.4-0.4V35c0-0.2,0.2-0.4,0.4-0.4l0,0
				C100.6,34.6,100.8,34.8,100.8,35z"/>
		</g>
		<g>
			<path class="st5" d="M105.1,48.7c0.1-0.2,0.3-0.3,0.5-0.2c0.7,0.2,1.7,0.4,2.4,0.4c3.3,0,5.4-1.5,5.4-3.5c0-1.4-1.5-2.4-4.3-2.9
				c-3.2-0.5-5-1.9-5-3.7c0-2.4,2.4-4.3,6.2-4.3c0.7,0,1.8,0.2,2.6,0.4c0.2,0.1,0.4,0.3,0.3,0.6l0,0c-0.1,0.2-0.3,0.3-0.5,0.2
				c-0.7-0.2-1.7-0.4-2.4-0.4c-3.3,0-5.4,1.5-5.4,3.5c0,1.4,1.5,2.4,4.3,2.9c3.2,0.5,5,1.9,5,3.7c0,2.4-2.4,4.3-6.2,4.3
				c-0.7,0-1.8-0.2-2.6-0.4C105.2,49.2,105,48.9,105.1,48.7L105.1,48.7z"/>
		</g>
		<g>
			<path class="st5" d="M118,30.1L118,30.1c0.4,0,0.7,0.3,0.7,0.7v0c0,0.4-0.3,0.7-0.7,0.7l0,0c-0.4,0-0.7-0.3-0.7-0.7v0
				C117.3,30.4,117.6,30.1,118,30.1z M118.4,35v14c0,0.2-0.2,0.4-0.4,0.4h0c-0.2,0-0.4-0.2-0.4-0.4V35c0-0.2,0.2-0.4,0.4-0.4h0
				C118.2,34.6,118.4,34.8,118.4,35z"/>
		</g>
	</g>
	<g class="st5" transform="translate(63.9181,57.6315)" aria-label="Centrum fyzioterapie">
	 <path class="st5"
     d="M 3.8693953,-3.2440385 C 3.8303105,-3.4199201 3.7651691,-3.5762593 3.6739713,-3.7195702 3.5827734,-3.8628811 3.4785473,-3.9801355 3.3482646,-4.0778475 3.2179819,-4.1690454 3.0811851,-4.2407009 2.9248459,-4.2928139 2.7685067,-4.344927 2.6121675,-4.3709835 2.4428,-4.3709835 c -0.3126784,0 -0.5732437,0.058627 -0.7947242,0.1758816 -0.2214806,0.1172544 -0.4038763,0.2735936 -0.5471872,0.4690176 -0.14331098,0.195424 -0.24753712,0.4103904 -0.31267845,0.6514133 -0.0651413,0.2475371 -0.097712,0.4950742 -0.097712,0.7491254 0,0.2540512 0.0325707,0.5015882 0.097712,0.7491253 0.0651413,0.2475371 0.16936747,0.4625035 0.31267845,0.65792748 0.1433109,0.19542401 0.3257066,0.34524908 0.5471872,0.46250348 0.2214805,0.1172544 0.4820458,0.1758816 0.7947242,0.1758816 0.2149664,0 0.4103905,-0.0390848 0.5862721,-0.1172544 0.1693674,-0.0781696 0.3191925,-0.18239574 0.4494752,-0.31919254 C 3.6023158,-0.84683735 3.7000278,-1.0031766 3.7847115,-1.1855723 3.856367,-1.367968 3.9084801,-1.563392 3.9345366,-1.7718443 H 4.3774977 C 4.344927,-1.4852224 4.2797857,-1.2246571 4.1755595,-0.99666242 4.0713334,-0.76215361 3.9345366,-0.56672961 3.7716833,-0.41039041 3.6023158,-0.24753707 3.4068918,-0.12376854 3.1854113,-0.0390848 2.9639307,0.05211307 2.7163937,0.09119787 2.4428,0.09119787 c -0.3647914,0 -0.6904981,-0.06514134 -0.9640917,-0.19542401 C 1.2051147,-0.2345088 0.97712002,-0.41690454 0.79472428,-0.63838508 0.61232854,-0.85986562 0.47553174,-1.1139168 0.38433387,-1.4070528 0.29313601,-1.6936747 0.24753707,-1.999839 0.24753707,-2.3255456 c 0,-0.3191926 0.0455989,-0.6253569 0.1367968,-0.9184929 0.0911979,-0.2866218 0.22799467,-0.5471872 0.41039041,-0.7686677 0.18239574,-0.2214805 0.41039042,-0.4038763 0.68398402,-0.534159 0.2735936,-0.1302826 0.5993003,-0.195424 0.9640917,-0.2019381 0.2214806,0 0.436447,0.032571 0.6448993,0.097712 0.2084522,0.065141 0.4038762,0.1628534 0.5732437,0.293136 0.1693675,0.1302827 0.3126784,0.2866219 0.4299328,0.4690176 0.1172544,0.1889099 0.1889099,0.4038763 0.2214805,0.6448992 z" />
	 <path class="st5"
     d="M 7.2378417,-1.9151552 C 7.2313276,-2.0714944 7.205271,-2.2213195 7.153158,-2.3646304 7.1010449,-2.5079414 7.0359035,-2.6317099 6.9447057,-2.7424502 6.8535078,-2.8531905 6.7427675,-2.9443883 6.6124849,-3.0095297 6.4822022,-3.074671 6.3323771,-3.1137558 6.1695238,-3.1137558 c -0.1693675,0 -0.3191925,0.039085 -0.4494752,0.1042261 -0.1302827,0.065141 -0.2410229,0.1563392 -0.3322208,0.2670795 -0.091198,0.1107403 -0.1693675,0.241023 -0.2214806,0.3843339 -0.052113,0.1433109 -0.091198,0.293136 -0.1042261,0.4429611 z m -2.1757206,0.345249 c 0,0.1498251 0.019542,0.3061643 0.058627,0.4625035 0.039085,0.15633922 0.1107403,0.29965015 0.2019382,0.42341869 0.091198,0.13028267 0.2019381,0.2345088 0.345249,0.3126784 0.1367968,0.0846837 0.3061643,0.12376854 0.5015883,0.12376854 0.2996501,0 0.5341589,-0.0781696 0.7035264,-0.23450881 0.1693675,-0.1563392 0.2866219,-0.36479147 0.3517632,-0.62535682 h 0.4103904 c -0.091198,0.38433389 -0.247537,0.67746989 -0.4820458,0.88592216 -0.2345089,0.20845227 -0.5602155,0.31267841 -0.9836342,0.31267841 -0.2670795,0 -0.4950741,-0.04559894 -0.6904981,-0.1367968 C 5.2836017,-0.1367968 5.1272624,-0.26707947 5.010008,-0.42993281 4.8862395,-0.59278614 4.7950416,-0.78169601 4.7364144,-0.99666242 4.6777872,-1.2116288 4.6517307,-1.4396235 4.6517307,-1.6806464 c 0,-0.2214806 0.026057,-0.436447 0.084684,-0.6514134 0.058627,-0.2084522 0.1498251,-0.3973621 0.2735936,-0.5667296 0.1172544,-0.1693675 0.2735937,-0.2996501 0.4690177,-0.4038763 0.195424,-0.1042261 0.4234186,-0.1563392 0.6904981,-0.1563392 0.2670795,0 0.4950741,0.058627 0.6904981,0.1628534 0.1889099,0.1107402 0.3452491,0.2540512 0.4625035,0.4299328 0.1172544,0.1758816 0.2084523,0.3778197 0.2605654,0.6058144 0.045599,0.2279947 0.071655,0.4559893 0.065141,0.6904981 z" />
	 <path class="st5"
     d="m 8.0488799,-3.3612929 h 0.4103904 v 0.5797579 h 0.013028 c 0.07817,-0.2019381 0.2149664,-0.3647915 0.4169045,-0.48856 0.195424,-0.1237685 0.4169045,-0.1889099 0.6579275,-0.1889099 0.2345088,0 0.4299328,0.032571 0.5862727,0.091198 0.156339,0.065141 0.286621,0.1498251 0.384333,0.2605653 0.0912,0.1107403 0.15634,0.2475371 0.201939,0.4038763 0.03908,0.1628534 0.05863,0.3452491 0.05863,0.5406731 V 0 h -0.410391 v -2.097551 c 0,-0.1433109 -0.01303,-0.2735936 -0.03908,-0.3973621 -0.02606,-0.1237685 -0.07166,-0.2345088 -0.136797,-0.3257067 -0.06514,-0.091198 -0.156339,-0.1628533 -0.26708,-0.2149664 -0.1107402,-0.052113 -0.2475371,-0.07817 -0.4103904,-0.07817 -0.1693675,0 -0.3126784,0.032571 -0.4429611,0.091198 -0.1302826,0.058627 -0.2345088,0.1367968 -0.3257066,0.2410229 -0.091198,0.1042262 -0.1563392,0.2214806 -0.2084523,0.3647915 -0.052113,0.1433109 -0.07817,0.293136 -0.07817,0.4559893 V 0 H 8.0488799 Z" />
	 <path class="st5"
     d="m 12.05561,-3.3612929 h 0.683984 v 0.3452491 H 12.05561 v 2.26691845 c 0,0.13679681 0.01303,0.24102294 0.05211,0.31919254 0.03909,0.0781696 0.130283,0.1172544 0.280108,0.12376854 0.117254,0 0.234509,-0.006514 0.351763,-0.0195424 V 0.0195424 c -0.06514,0 -0.123769,0.0065141 -0.182396,0.0065141 -0.06514,0.0065141 -0.123768,0.0065141 -0.182396,0.0065141 -0.273593,0 -0.469017,-0.05211307 -0.573243,-0.15633921 -0.110741,-0.10422613 -0.162854,-0.30616427 -0.156339,-0.59278614 V -3.0160438 h -0.586272 v -0.3452491 h 0.586272 v -1.0096906 h 0.41039 z" />
	 <path class="st5"
     d="m 13.18808,-3.3612929 h 0.377819 v 0.7882102 h 0.01303 c 0.104226,-0.2735936 0.260565,-0.4820459 0.482046,-0.631871 0.22148,-0.1433109 0.482045,-0.2149664 0.78821,-0.2019381 v 0.4103904 c -0.18891,-0.00651 -0.358278,0.019542 -0.508103,0.07817 -0.156339,0.058627 -0.286622,0.1433109 -0.397362,0.2475371 -0.11074,0.1107403 -0.195424,0.2410229 -0.254051,0.390848 -0.06514,0.1498251 -0.0912,0.3126784 -0.0912,0.48856 V 0 h -0.41039 z" />
	 <path class="st5"
     d="m 17.809377,0 h -0.377819 v -0.60581441 h -0.01303 c -0.11074,0.22799467 -0.267079,0.40387627 -0.475531,0.52113068 -0.208453,0.1172544 -0.436447,0.1758816 -0.683984,0.1758816 -0.214967,0 -0.397363,-0.02605654 -0.547188,-0.08468374 -0.149825,-0.0586272 -0.273593,-0.14331093 -0.364791,-0.2540512 -0.0912,-0.10422614 -0.162854,-0.24102294 -0.201938,-0.39736214 -0.0456,-0.1563392 -0.06514,-0.33222081 -0.06514,-0.53415899 v -2.1822347 h 0.410391 v 2.1887489 c 0.0065,0.30616425 0.07817,0.53415892 0.208452,0.69049812 0.130283,0.15633921 0.364792,0.23450881 0.690498,0.23450881 0.175882,0 0.325707,-0.0325707 0.45599,-0.11074027 0.123768,-0.0781696 0.227994,-0.1758816 0.312678,-0.30616427 0.07817,-0.12376854 0.136797,-0.26707947 0.182396,-0.42993279 0.03908,-0.1628534 0.05863,-0.3322208 0.05863,-0.5015883 v -1.7653302 h 0.41039 z" />
	 <path class="st5"
     d="m 18.435272,-3.3612929 h 0.37782 v 0.5667296 h 0.01954 c 0.104226,-0.2084522 0.247537,-0.3713056 0.423419,-0.48856 0.175881,-0.1172544 0.403876,-0.1758816 0.67747,-0.1758816 0.22148,0 0.416904,0.058627 0.5993,0.1628534 0.182396,0.1107402 0.29965,0.2735936 0.364792,0.4950741 0.09771,-0.2214805 0.247537,-0.3843339 0.442961,-0.4950741 0.195424,-0.1042262 0.403876,-0.1628534 0.625356,-0.1628534 0.742612,0 1.113917,0.3973622 1.113917,1.1790582 V 0 h -0.41039 v -2.2604043 c 0,-0.2735936 -0.05863,-0.48856 -0.175882,-0.631871 -0.117254,-0.1433109 -0.325706,-0.2214805 -0.618842,-0.2214805 -0.182396,0 -0.325707,0.039085 -0.442962,0.1042261 -0.117254,0.065141 -0.214966,0.1563392 -0.280107,0.2670795 -0.07166,0.1172544 -0.123769,0.2475371 -0.149825,0.390848 -0.02606,0.143311 -0.03909,0.293136 -0.03909,0.4494752 V 0 h -0.410391 v -2.2799467 c 0,-0.1107403 -0.01303,-0.2149664 -0.03908,-0.3191925 -0.02606,-0.1042262 -0.06514,-0.1889099 -0.117255,-0.2670795 -0.05211,-0.07817 -0.123768,-0.1367968 -0.214966,-0.1823958 -0.0912,-0.039085 -0.201938,-0.058627 -0.332221,-0.065141 -0.175882,0 -0.325707,0.032571 -0.455989,0.097712 -0.130283,0.065141 -0.234509,0.1498251 -0.312679,0.2605653 -0.07817,0.1107403 -0.136797,0.241023 -0.175881,0.3908481 -0.03909,0.149825 -0.05863,0.3126784 -0.05863,0.48856 V 0 h -0.41039 z" />
	 <path class="st5"
     d="M 26.670923,-3.0160438 H 26.006482 V 0 h -0.410391 v -3.0160438 h -0.573243 v -0.3452491 h 0.573243 v -0.3061642 c 0,-0.143311 0.0065,-0.2735936 0.03257,-0.3973622 0.01954,-0.1172544 0.05863,-0.2214805 0.123768,-0.3126784 0.05863,-0.084684 0.143311,-0.1498251 0.247538,-0.2019381 0.104226,-0.045599 0.241022,-0.065141 0.41039,-0.071656 0.05863,0 0.117254,0.00651 0.169367,0.00651 0.05211,0.00651 0.110741,0.013028 0.175882,0.019542 v 0.3517633 c -0.05863,-0.00651 -0.11074,-0.013028 -0.156339,-0.019542 -0.05211,-0.00651 -0.09771,-0.013028 -0.143311,-0.013028 -0.117255,0 -0.201938,0.019542 -0.260565,0.052113 -0.06514,0.039085 -0.110741,0.084684 -0.136797,0.1433109 -0.02606,0.058627 -0.0456,0.1237685 -0.0456,0.2019381 -0.0065,0.07817 -0.0065,0.1628534 -0.0065,0.2540512 v 0.293136 h 0.664441 z" />
	 <path class="st5"
     d="m 26.53894,-3.3612929 h 0.436447 l 1.107402,2.86621876 1.035747,-2.86621876 h 0.410391 l -1.459166,3.86939531 c -0.06514,0.14331094 -0.117254,0.26707947 -0.169368,0.35827734 -0.05211,0.0911979 -0.11074,0.16936745 -0.175881,0.22148055 -0.06514,0.052113 -0.136797,0.091198 -0.221481,0.1172544 -0.08468,0.026056 -0.18891,0.039085 -0.319192,0.032571 -0.08468,0 -0.149825,-0.00651 -0.195424,-0.00651 -0.0456,0 -0.08468,-0.013028 -0.117255,-0.026056 V 0.85986562 c 0.0456,0.0130283 0.0912,0.0195424 0.136797,0.0260565 0.0456,0.006514 0.0912,0.006514 0.143311,0.006514 0.0912,0 0.162853,-0.0130283 0.221481,-0.0390848 0.05863,-0.0260565 0.11074,-0.0586272 0.156339,-0.10422613 0.03909,-0.0455989 0.07817,-0.10422614 0.11074,-0.16936747 0.02606,-0.0651413 0.05863,-0.13679681 0.09771,-0.21496641 l 0.143311,-0.37781974 z" />
	 <path class="st5"
     d="m 29.984029,-0.34524907 h 2.312518 V 0 H 29.488955 V -0.33222081 L 31.684218,-3.0160438 H 29.63878 v -0.3452491 h 2.566569 v 0.293136 z" />
	 <path class="st5"
     d="m 32.653935,-4.6510913 h 0.41039 v 0.6579275 h -0.41039 z m 0,1.2897984 h 0.41039 V 0 h -0.41039 z" />
	 <path class="st5"
     d="m 35.126179,-3.1137558 c -0.195424,0 -0.371305,0.045599 -0.514616,0.1237685 -0.149825,0.084684 -0.273594,0.195424 -0.371306,0.3257067 -0.09771,0.1367968 -0.169367,0.293136 -0.22148,0.4625035 -0.05211,0.1693675 -0.07166,0.3452491 -0.07166,0.5211307 0,0.1823957 0.01954,0.3582773 0.07166,0.5276448 0.05211,0.16936745 0.123768,0.32570665 0.22148,0.45598932 0.09771,0.1367968 0.221481,0.24753707 0.371306,0.32570667 0.143311,0.0846837 0.319192,0.12376854 0.514616,0.12376854 0.195425,0 0.364792,-0.0390848 0.514617,-0.12376854 0.143311,-0.0781696 0.26708,-0.18890987 0.364792,-0.32570667 0.09771,-0.13028267 0.169367,-0.28662187 0.22148,-0.45598932 0.05211,-0.1693675 0.07166,-0.3452491 0.07817,-0.5276448 0,-0.1758816 -0.02606,-0.3517632 -0.07817,-0.5211307 -0.05211,-0.1693675 -0.123768,-0.3257067 -0.22148,-0.4625035 -0.09771,-0.1302827 -0.221481,-0.2410229 -0.364792,-0.3257067 -0.149825,-0.07817 -0.319192,-0.1172544 -0.514617,-0.1237685 z m 0,-0.3452491 c 0.254052,0 0.482046,0.052113 0.67747,0.143311 0.195424,0.097712 0.364792,0.2279946 0.501589,0.3843338 0.130282,0.1628534 0.234508,0.3517633 0.306164,0.5667297 0.06514,0.2149664 0.104226,0.442961 0.104226,0.683984 0,0.247537 -0.03909,0.4755317 -0.104226,0.69049812 -0.07166,0.2149664 -0.175882,0.40387627 -0.306164,0.56021547 -0.136797,0.16285334 -0.306165,0.29313601 -0.501589,0.38433388 -0.195424,0.09119786 -0.423418,0.1367968 -0.67747,0.1367968 -0.260565,0 -0.48856,-0.04559894 -0.683984,-0.1367968 -0.195424,-0.09119787 -0.364791,-0.22148054 -0.495074,-0.38433388 -0.136796,-0.1563392 -0.241023,-0.34524907 -0.306164,-0.56021547 -0.07165,-0.21496642 -0.104226,-0.44296112 -0.104226,-0.69049812 0,-0.241023 0.03257,-0.4690176 0.104226,-0.683984 0.06514,-0.2149664 0.169368,-0.4038763 0.306164,-0.5667297 0.130283,-0.1563392 0.29965,-0.2866218 0.495074,-0.3843338 0.195424,-0.091198 0.423419,-0.143311 0.683984,-0.143311 z" />
	 <path class="st5"
     d="m 37.833544,-3.3612929 h 0.683984 v 0.3452491 h -0.683984 v 2.26691845 c 0,0.13679681 0.01303,0.24102294 0.05211,0.31919254 0.03909,0.0781696 0.130283,0.1172544 0.280108,0.12376854 0.117254,0 0.234509,-0.006514 0.351763,-0.0195424 V 0.0195424 c -0.06514,0 -0.123769,0.0065141 -0.182396,0.0065141 -0.06514,0.0065141 -0.123768,0.0065141 -0.182395,0.0065141 -0.273594,0 -0.469018,-0.05211307 -0.573244,-0.15633921 -0.11074,-0.10422613 -0.162854,-0.30616427 -0.156339,-0.59278614 V -3.0160438 h -0.586272 v -0.3452491 h 0.586272 v -1.0096906 h 0.41039 z" />
	 <path class="st5"
     d="m 41.382756,-1.9151552 c -0.0065,-0.1563392 -0.03257,-0.3061643 -0.08468,-0.4494752 -0.05211,-0.143311 -0.117255,-0.2670795 -0.208453,-0.3778198 -0.0912,-0.1107403 -0.201938,-0.2019381 -0.33222,-0.2670795 -0.130283,-0.065141 -0.280108,-0.1042261 -0.442962,-0.1042261 -0.169367,0 -0.319192,0.039085 -0.449475,0.1042261 -0.130282,0.065141 -0.241023,0.1563392 -0.332221,0.2670795 -0.0912,0.1107403 -0.169367,0.241023 -0.22148,0.3843339 -0.05211,0.1433109 -0.0912,0.293136 -0.104226,0.4429611 z m -2.17572,0.345249 c 0,0.1498251 0.01954,0.3061643 0.05863,0.4625035 0.03908,0.15633922 0.11074,0.29965015 0.201938,0.42341869 0.0912,0.13028267 0.201938,0.2345088 0.345249,0.3126784 0.136797,0.0846837 0.306164,0.12376854 0.501588,0.12376854 0.299651,0 0.534159,-0.0781696 0.703527,-0.23450881 0.169367,-0.1563392 0.286622,-0.36479147 0.351763,-0.62535682 h 0.41039 c -0.0912,0.38433389 -0.247537,0.67746989 -0.482045,0.88592216 -0.234509,0.20845227 -0.560216,0.31267841 -0.983635,0.31267841 -0.267079,0 -0.495074,-0.04559894 -0.690498,-0.1367968 -0.195424,-0.09119787 -0.351763,-0.22148054 -0.469017,-0.38433388 -0.123769,-0.16285333 -0.214967,-0.3517632 -0.273594,-0.56672961 -0.05863,-0.21496638 -0.08468,-0.44296108 -0.08468,-0.68398398 0,-0.2214806 0.02606,-0.436447 0.08468,-0.6514134 0.05863,-0.2084522 0.149825,-0.3973621 0.273594,-0.5667296 0.117254,-0.1693675 0.273593,-0.2996501 0.469017,-0.4038763 0.195424,-0.1042261 0.423419,-0.1563392 0.690498,-0.1563392 0.26708,0 0.495075,0.058627 0.690499,0.1628534 0.188909,0.1107402 0.345249,0.2540512 0.462503,0.4299328 0.117254,0.1758816 0.208452,0.3778197 0.260565,0.6058144 0.0456,0.2279947 0.07166,0.4559893 0.06514,0.6904981 z" />
	 <path class="st5"
     d="m 42.200308,-3.3612929 h 0.377819 v 0.7882102 h 0.01303 c 0.104226,-0.2735936 0.260565,-0.4820459 0.482046,-0.631871 0.22148,-0.1433109 0.482045,-0.2149664 0.78821,-0.2019381 v 0.4103904 c -0.18891,-0.00651 -0.358278,0.019542 -0.508103,0.07817 -0.156339,0.058627 -0.286622,0.1433109 -0.397362,0.2475371 -0.11074,0.1107403 -0.195424,0.2410229 -0.254051,0.390848 -0.06514,0.1498251 -0.0912,0.3126784 -0.0912,0.48856 V 0 h -0.41039 z" />
	 <path class="st5"
     d="m 44.059615,-2.3320598 c 0.01303,-0.195424 0.05211,-0.3647914 0.123768,-0.5081024 0.06514,-0.1433109 0.162853,-0.2605653 0.280108,-0.3517632 0.117254,-0.091198 0.260565,-0.1563392 0.423419,-0.2019381 0.156339,-0.039085 0.338735,-0.065141 0.534159,-0.065141 0.14331,0 0.293136,0.019542 0.442961,0.045599 0.143311,0.026056 0.280107,0.07817 0.397362,0.1563392 0.117254,0.07817 0.208452,0.1889098 0.286622,0.3322208 0.07165,0.1433109 0.11074,0.3257067 0.11074,0.5471872 v 1.78487256 c 0,0.16936747 0.07817,0.24753707 0.241023,0.24753707 0.0456,0 0.0912,-0.006514 0.130282,-0.0260565 v 0.34524908 c -0.05211,0.01302826 -0.0912,0.0195424 -0.130282,0.0195424 C 46.860692,0 46.815093,0 46.76298,0 c -0.104226,0 -0.18891,-0.01302827 -0.254051,-0.0390848 -0.06514,-0.02605653 -0.11074,-0.07165547 -0.143311,-0.12376854 -0.03909,-0.0521131 -0.05863,-0.11074027 -0.07166,-0.18239573 -0.01303,-0.0716555 -0.01303,-0.14982507 -0.01303,-0.24102294 h -0.01303 c -0.07817,0.11074027 -0.149825,0.20845227 -0.227995,0.293136 -0.07817,0.0846837 -0.162853,0.15633921 -0.254051,0.20845228 -0.0912,0.0586272 -0.201938,0.10422613 -0.319193,0.13028266 -0.117254,0.03257067 -0.260565,0.04559894 -0.423418,0.04559894 -0.156339,0 -0.306165,-0.01302827 -0.442961,-0.05211307 C 44.463491,0 44.346236,-0.0586272 44.24201,-0.1367968 c -0.104226,-0.0781696 -0.182395,-0.18239574 -0.241023,-0.30616427 -0.05863,-0.12376854 -0.08468,-0.27359361 -0.08468,-0.44296108 0,-0.23450885 0.05211,-0.41690455 0.156339,-0.54718725 0.104226,-0.1302826 0.241023,-0.2345088 0.41039,-0.3061642 0.169368,-0.065141 0.364792,-0.1172544 0.579758,-0.143311 0.214967,-0.026057 0.436447,-0.058627 0.657928,-0.084684 0.08468,-0.00651 0.162853,-0.019542 0.227994,-0.032571 0.05863,-0.013028 0.117255,-0.032571 0.162854,-0.065141 0.03908,-0.032571 0.07165,-0.07817 0.09771,-0.1367968 0.02606,-0.052113 0.03257,-0.1302827 0.03908,-0.2214805 0,-0.1367968 -0.02606,-0.2475371 -0.07165,-0.338735 -0.0456,-0.091198 -0.11074,-0.1628533 -0.18891,-0.2149664 -0.07817,-0.052113 -0.175881,-0.084684 -0.280108,-0.1042261 -0.104226,-0.019542 -0.22148,-0.032571 -0.338735,-0.032571 -0.260565,0 -0.475531,0.065141 -0.638385,0.1889099 -0.169367,0.1237685 -0.254051,0.3191925 -0.260565,0.5927861 z m 2.188748,0.4950742 h -0.01303 c -0.02606,0.052113 -0.07817,0.084684 -0.149825,0.1042261 -0.07817,0.026056 -0.143311,0.039085 -0.195424,0.045599 -0.175881,0.032571 -0.358277,0.058627 -0.540673,0.084684 -0.182396,0.026056 -0.351763,0.058627 -0.501588,0.1042261 -0.156339,0.052113 -0.280108,0.1172544 -0.37782,0.2084523 -0.09771,0.091198 -0.143311,0.2149664 -0.143311,0.37781972 0,0.10422613 0.01954,0.20193813 0.05863,0.28010774 0.03909,0.0781696 0.09771,0.14982506 0.169368,0.20845227 0.06514,0.0586272 0.149825,0.10422613 0.241023,0.13028266 0.0912,0.0325707 0.182395,0.0455989 0.280107,0.0455989 0.15634,0 0.306165,-0.0195424 0.449476,-0.0716555 0.143311,-0.0455989 0.267079,-0.1172544 0.371305,-0.20845227 0.104226,-0.0911979 0.18891,-0.20193814 0.254051,-0.33222081 0.06514,-0.13028266 0.0912,-0.27359361 0.09771,-0.44296111 z" />
	 <path class="st5"
     d="m 47.332994,-3.3612929 h 0.37782 v 0.6383851 h 0.01303 c 0.0912,-0.2345088 0.247537,-0.4103904 0.462504,-0.5406731 0.214966,-0.1302826 0.462503,-0.195424 0.736097,-0.195424 0.254051,0 0.475532,0.052113 0.664441,0.143311 0.18891,0.097712 0.34525,0.2279946 0.475532,0.390848 0.123769,0.1628533 0.214967,0.3517632 0.280108,0.5667296 0.05863,0.2149664 0.08468,0.4429611 0.0912,0.6774699 0,0.2410229 -0.03257,0.4690176 -0.0912,0.68398398 -0.06514,0.21496641 -0.156339,0.40387628 -0.280108,0.56672961 -0.130282,0.16285334 -0.286622,0.29313601 -0.475532,0.38433388 -0.188909,0.09119786 -0.41039,0.1367968 -0.664441,0.1367968 -0.123769,0 -0.247537,-0.01302827 -0.364792,-0.04559894 -0.123768,-0.02605653 -0.234508,-0.07165546 -0.338735,-0.1367968 -0.104226,-0.0586272 -0.201938,-0.1367968 -0.280107,-0.22799467 -0.07817,-0.0911979 -0.143311,-0.195424 -0.182396,-0.31919254 h -0.01303 V 1.2376854 h -0.410391 z m 2.690337,1.6806465 c 0,-0.1693675 -0.02606,-0.3452491 -0.06514,-0.5146166 -0.03909,-0.1693674 -0.104226,-0.3257066 -0.195424,-0.4625034 -0.0912,-0.1302827 -0.201938,-0.241023 -0.338735,-0.3257067 -0.143311,-0.084684 -0.306164,-0.1302827 -0.501588,-0.1302827 -0.227995,0 -0.416905,0.039085 -0.56673,0.1172544 -0.156339,0.07817 -0.273593,0.1823957 -0.364791,0.3126784 -0.0912,0.1302827 -0.156339,0.2866219 -0.195424,0.4559894 -0.03909,0.1758816 -0.05211,0.3582773 -0.05211,0.5471872 0,0.1758816 0.01954,0.3517632 0.05863,0.5211306 0.03909,0.16936752 0.11074,0.32570672 0.201938,0.45598939 0.0912,0.1367968 0.214966,0.24753707 0.364792,0.3322208 0.149825,0.0846837 0.33222,0.12376854 0.553701,0.12376854 0.195424,0 0.358277,-0.0390848 0.501588,-0.12376854 0.136797,-0.0846837 0.247537,-0.195424 0.338735,-0.3322208 0.0912,-0.13028267 0.156339,-0.28662187 0.195424,-0.45598939 0.03909,-0.1693674 0.06514,-0.345249 0.06514,-0.5211306 z" />
	 <path class="st5"
     d="m 50.930046,-4.6510913 h 0.410391 v 0.6579275 h -0.410391 z m 0,1.2897984 h 0.410391 V 0 h -0.410391 z" />
	 <path class="st5"
     d="m 54.398954,-1.9151552 c -0.0065,-0.1563392 -0.03257,-0.3061643 -0.08468,-0.4494752 -0.05211,-0.143311 -0.117255,-0.2670795 -0.208452,-0.3778198 -0.0912,-0.1107403 -0.201939,-0.2019381 -0.332221,-0.2670795 -0.130283,-0.065141 -0.280108,-0.1042261 -0.442961,-0.1042261 -0.169368,0 -0.319193,0.039085 -0.449476,0.1042261 -0.130282,0.065141 -0.241023,0.1563392 -0.33222,0.2670795 -0.0912,0.1107403 -0.169368,0.241023 -0.221481,0.3843339 -0.05211,0.1433109 -0.0912,0.293136 -0.104226,0.4429611 z m -2.175721,0.345249 c 0,0.1498251 0.01954,0.3061643 0.05863,0.4625035 0.03909,0.15633922 0.11074,0.29965015 0.201938,0.42341869 0.0912,0.13028267 0.201938,0.2345088 0.345249,0.3126784 0.136797,0.0846837 0.306165,0.12376854 0.501589,0.12376854 0.29965,0 0.534159,-0.0781696 0.703526,-0.23450881 0.169368,-0.1563392 0.286622,-0.36479147 0.351763,-0.62535682 h 0.410391 c -0.0912,0.38433389 -0.247537,0.67746989 -0.482046,0.88592216 -0.234509,0.20845227 -0.560216,0.31267841 -0.983634,0.31267841 -0.26708,0 -0.495075,-0.04559894 -0.690499,-0.1367968 -0.195424,-0.09119787 -0.351763,-0.22148054 -0.469017,-0.38433388 -0.123769,-0.16285333 -0.214967,-0.3517632 -0.273594,-0.56672961 -0.05863,-0.21496638 -0.08468,-0.44296108 -0.08468,-0.68398398 0,-0.2214806 0.02606,-0.436447 0.08468,-0.6514134 0.05863,-0.2084522 0.149825,-0.3973621 0.273594,-0.5667296 0.117254,-0.1693675 0.273593,-0.2996501 0.469017,-0.4038763 0.195424,-0.1042261 0.423419,-0.1563392 0.690499,-0.1563392 0.267079,0 0.495074,0.058627 0.690498,0.1628534 0.18891,0.1107402 0.345249,0.2540512 0.462503,0.4299328 0.117255,0.1758816 0.208453,0.3778197 0.260566,0.6058144 0.0456,0.2279947 0.07165,0.4559893 0.06514,0.6904981 z" />
    </g>
</g>
</svg>